{
    "asset" : {
        "generator" : "Khronos glTF Blender I/O v1.8.19",
        "version" : "2.0"
    },
    "scene" : 0,
    "scenes" : [
        {
            "name" : "Scene",
            "nodes" : [
                0
            ]
        }
    ],
    "nodes" : [
        {
            "mesh" : 0,
            "name" : "Plane"
        }
    ],
    "meshes" : [
        {
            "name" : "Plane",
            "primitives" : [
                {
                    "attributes" : {
                        "POSITION" : 0,
                        "NORMAL" : 1,
                        "TEXCOORD_0" : 2
                    },
                    "indices" : 3
                }
            ]
        }
    ],
    "accessors" : [
        {
            "bufferView" : 0,
            "componentType" : 5126,
            "count" : 2894,
            "max" : [
                1.6848615407943726,
                2.11441707611084,
                2.5266873836517334
            ],
            "min" : [
                -1.663938283920288,
                -0.8083093762397766,
                -2.7229878902435303
            ],
            "type" : "VEC3"
        },
        {
            "bufferView" : 1,
            "componentType" : 5126,
            "count" : 2894,
            "type" : "VEC3"
        },
        {
            "bufferView" : 2,
            "componentType" : 5126,
            "count" : 2894,
            "type" : "VEC2"
        },
        {
            "bufferView" : 3,
            "componentType" : 5123,
            "count" : 5019,
            "type" : "SCALAR"
        }
    ],
    "bufferViews" : [
        {
            "buffer" : 0,
            "byteLength" : 34728,
            "byteOffset" : 0
        },
        {
            "buffer" : 0,
            "byteLength" : 34728,
            "byteOffset" : 34728
        },
        {
            "buffer" : 0,
            "byteLength" : 23152,
            "byteOffset" : 69456
        },
        {
            "buffer" : 0,
            "byteLength" : 10038,
            "byteOffset" : 92608
        }
    ],
    "buffers" : [
        {
            "byteLength" : 102648,
            "uri" : "data:application/octet-stream;base64,"
        }
    ]
}
