{
    "asset" : {
        "generator" : "Khronos glTF Blender I/O v1.8.19",
        "version" : "2.0"
    },
    "scene" : 0,
    "scenes" : [
        {
            "name" : "Scene",
            "nodes" : [
                0
            ]
        }
    ],
    "nodes" : [
        {
            "mesh" : 0,
            "name" : "Plane",
            "rotation" : [
                -0.7071068286895752,
                0,
                0,
                0.7071068286895752
            ],
            "translation" : [
                0,
                -8.020097732543945,
                0
            ]
        }
    ],
    "materials" : [
        {
            "doubleSided" : true,
            "name" : "Material.001",
            "pbrMetallicRoughness" : {
                "baseColorFactor" : [
                    0.18812628090381622,
                    0.2483653724193573,
                    0.08153092861175537,
                    1
                ],
                "metallicFactor" : 0,
                "roughnessFactor" : 0.5
            }
        }
    ],
    "meshes" : [
        {
            "name" : "Plane",
            "primitives" : [
                {
                    "attributes" : {
                        "POSITION" : 0,
                        "NORMAL" : 1,
                        "TEXCOORD_0" : 2
                    },
                    "indices" : 3,
                    "material" : 0
                }
            ]
        }
    ],
    "accessors" : [
        {
            "bufferView" : 0,
            "componentType" : 5126,
            "count" : 457,
            "max" : [
                12.645936012268066,
                7.136288166046143,
                18.018686294555664
            ],
            "min" : [
                -11.676657676696777,
                -7.067203998565674,
                0.07116281986236572
            ],
            "type" : "VEC3"
        },
        {
            "bufferView" : 1,
            "componentType" : 5126,
            "count" : 457,
            "type" : "VEC3"
        },
        {
            "bufferView" : 2,
            "componentType" : 5126,
            "count" : 457,
            "type" : "VEC2"
        },
        {
            "bufferView" : 3,
            "componentType" : 5123,
            "count" : 807,
            "type" : "SCALAR"
        }
    ],
    "bufferViews" : [
        {
            "buffer" : 0,
            "byteLength" : 5484,
            "byteOffset" : 0
        },
        {
            "buffer" : 0,
            "byteLength" : 5484,
            "byteOffset" : 5484
        },
        {
            "buffer" : 0,
            "byteLength" : 3656,
            "byteOffset" : 10968
        },
        {
            "buffer" : 0,
            "byteLength" : 1614,
            "byteOffset" : 14624
        }
    ],
    "buffers" : [
        {
            "byteLength" : 16240,
            "uri" : "data:application/octet-stream;base64,"
        }
    ]
}
