{
    "asset" : {
        "generator" : "Khronos glTF Blender I/O v1.8.19",
        "version" : "2.0"
    },
    "scene" : 0,
    "scenes" : [
        {
            "name" : "Scene",
            "nodes" : [
                0
            ]
        }
    ],
    "nodes" : [
        {
            "mesh" : 0,
            "name" : "Building",
            "rotation" : [
                -0.7071068286895752,
                0,
                0,
                0.7071068286895752
            ],
            "translation" : [
                0,
                -1.295690655708313,
                0
            ]
        }
    ],
    "meshes" : [
        {
            "name" : "Plane",
            "primitives" : [
                {
                    "attributes" : {
                        "POSITION" : 0,
                        "NORMAL" : 1,
                        "TEXCOORD_0" : 2
                    },
                    "indices" : 3
                }
            ]
        }
    ],
    "accessors" : [
        {
            "bufferView" : 0,
            "componentType" : 5126,
            "count" : 11390,
            "max" : [
                1.4329349994659424,
                1.1448806524276733,
                2.943477153778076
            ],
            "min" : [
                -1.6187164783477783,
                -1.045504093170166,
                -0.002194643020629883
            ],
            "type" : "VEC3"
        },
        {
            "bufferView" : 1,
            "componentType" : 5126,
            "count" : 11390,
            "type" : "VEC3"
        },
        {
            "bufferView" : 2,
            "componentType" : 5126,
            "count" : 11390,
            "type" : "VEC2"
        },
        {
            "bufferView" : 3,
            "componentType" : 5123,
            "count" : 19671,
            "type" : "SCALAR"
        }
    ],
    "bufferViews" : [
        {
            "buffer" : 0,
            "byteLength" : 136680,
            "byteOffset" : 0
        },
        {
            "buffer" : 0,
            "byteLength" : 136680,
            "byteOffset" : 136680
        },
        {
            "buffer" : 0,
            "byteLength" : 91120,
            "byteOffset" : 273360
        },
        {
            "buffer" : 0,
            "byteLength" : 39342,
            "byteOffset" : 364480
        }
    ],
    "buffers" : [
        {
            "byteLength" : 403824,
            "uri" : "data:application/octet-stream;base64,"
        }
    ]
}
