{
    "asset" : {
        "generator" : "Khronos glTF Blender I/O v1.8.19",
        "version" : "2.0"
    },
    "scene" : 0,
    "scenes" : [
        {
            "name" : "Scene",
            "nodes" : [
                0
            ]
        }
    ],
    "nodes" : [
        {
            "mesh" : 0,
            "name" : "Curve.012",
            "rotation" : [
                0.7071068286895752,
                0,
                0,
                0.7071068286895752
            ],
            "scale" : [
                27.406129837036133,
                27.406129837036133,
                27.406129837036133
            ],
            "translation" : [
                0.7022861242294312,
                7.125080585479736,
                1.011063575744629
            ]
        }
    ],
    "meshes" : [
        {
            "name" : "Curve.025",
            "primitives" : [
                {
                    "attributes" : {
                        "POSITION" : 0,
                        "NORMAL" : 1,
                        "TEXCOORD_0" : 2
                    },
                    "indices" : 3
                }
            ]
        }
    ],
    "accessors" : [
        {
            "bufferView" : 0,
            "componentType" : 5126,
            "count" : 1323,
            "max" : [
                0.33513304591178894,
                0.08220028877258301,
                0.2599516212940216
            ],
            "min" : [
                -0.3951120376586914,
                -1.0428389310836792,
                -0.3344413638114929
            ],
            "type" : "VEC3"
        },
        {
            "bufferView" : 1,
            "componentType" : 5126,
            "count" : 1323,
            "type" : "VEC3"
        },
        {
            "bufferView" : 2,
            "componentType" : 5126,
            "count" : 1323,
            "type" : "VEC2"
        },
        {
            "bufferView" : 3,
            "componentType" : 5123,
            "count" : 2208,
            "type" : "SCALAR"
        }
    ],
    "bufferViews" : [
        {
            "buffer" : 0,
            "byteLength" : 15876,
            "byteOffset" : 0
        },
        {
            "buffer" : 0,
            "byteLength" : 15876,
            "byteOffset" : 15876
        },
        {
            "buffer" : 0,
            "byteLength" : 10584,
            "byteOffset" : 31752
        },
        {
            "buffer" : 0,
            "byteLength" : 4416,
            "byteOffset" : 42336
        }
    ],
    "buffers" : [
        {
            "byteLength" : 46752,
            "uri" : "data:application/octet-stream;base64,"
        }
    ]
}
