{
    "asset" : {
        "generator" : "Khronos glTF Blender I/O v1.8.19",
        "version" : "2.0"
    },
    "scene" : 0,
    "scenes" : [
        {
            "name" : "Scene",
            "nodes" : [
                0
            ]
        }
    ],
    "nodes" : [
        {
            "mesh" : 0,
            "name" : "Plane"
        }
    ],
    "meshes" : [
        {
            "name" : "Plane",
            "primitives" : [
                {
                    "attributes" : {
                        "POSITION" : 0,
                        "NORMAL" : 1,
                        "TEXCOORD_0" : 2
                    },
                    "indices" : 3
                }
            ]
        }
    ],
    "accessors" : [
        {
            "bufferView" : 0,
            "componentType" : 5126,
            "count" : 956,
            "max" : [
                0.10520827770233154,
                0.8715537786483765,
                0.5625879764556885
            ],
            "min" : [
                -0.6959750056266785,
                -0.43262815475463867,
                -0.6486145257949829
            ],
            "type" : "VEC3"
        },
        {
            "bufferView" : 1,
            "componentType" : 5126,
            "count" : 956,
            "type" : "VEC3"
        },
        {
            "bufferView" : 2,
            "componentType" : 5126,
            "count" : 956,
            "type" : "VEC2"
        },
        {
            "bufferView" : 3,
            "componentType" : 5123,
            "count" : 1626,
            "type" : "SCALAR"
        }
    ],
    "bufferViews" : [
        {
            "buffer" : 0,
            "byteLength" : 11472,
            "byteOffset" : 0
        },
        {
            "buffer" : 0,
            "byteLength" : 11472,
            "byteOffset" : 11472
        },
        {
            "buffer" : 0,
            "byteLength" : 7648,
            "byteOffset" : 22944
        },
        {
            "buffer" : 0,
            "byteLength" : 3252,
            "byteOffset" : 30592
        }
    ],
    "buffers" : [
        {
            "byteLength" : 33844,
            "uri" : "data:application/octet-stream;base64,"
        }
    ]
}
