{
    "asset" : {
        "generator" : "Khronos glTF Blender I/O v1.8.19",
        "version" : "2.0"
    },
    "scene" : 0,
    "scenes" : [
        {
            "name" : "Scene",
            "nodes" : [
                0
            ]
        }
    ],
    "nodes" : [
        {
            "mesh" : 0,
            "name" : "Text.001",
            "rotation" : [
                -0.5,
                -0.5000002980232239,
                0.5,
                -0.4999997317790985
            ],
            "scale" : [
                1.8028810024261475,
                1.8028810024261475,
                1.8028810024261475
            ],
            "translation" : [
                -9.349376678466797,
                7.185980796813965,
                6.64501428604126
            ]
        }
    ],
    "meshes" : [
        {
            "name" : "PHOENIX.001",
            "primitives" : [
                {
                    "attributes" : {
                        "POSITION" : 0,
                        "NORMAL" : 1,
                        "TEXCOORD_0" : 2
                    },
                    "indices" : 3
                }
            ]
        }
    ],
    "accessors" : [
        {
            "bufferView" : 0,
            "componentType" : 5126,
            "count" : 3594,
            "max" : [
                7.224577903747559,
                12.574302673339844,
                10.071378707885742
            ],
            "min" : [
                -2.0065972805023193,
                -1.7372641563415527,
                -1.7123565673828125
            ],
            "type" : "VEC3"
        },
        {
            "bufferView" : 1,
            "componentType" : 5126,
            "count" : 3594,
            "type" : "VEC3"
        },
        {
            "bufferView" : 2,
            "componentType" : 5126,
            "count" : 3594,
            "type" : "VEC2"
        },
        {
            "bufferView" : 3,
            "componentType" : 5123,
            "count" : 6354,
            "type" : "SCALAR"
        }
    ],
    "bufferViews" : [
        {
            "buffer" : 0,
            "byteLength" : 43128,
            "byteOffset" : 0
        },
        {
            "buffer" : 0,
            "byteLength" : 43128,
            "byteOffset" : 43128
        },
        {
            "buffer" : 0,
            "byteLength" : 28752,
            "byteOffset" : 86256
        },
        {
            "buffer" : 0,
            "byteLength" : 12708,
            "byteOffset" : 115008
        }
    ],
    "buffers" : [
        {
            "byteLength" : 127716,
            "uri" : "data:application/octet-stream;base64,"
        }
    ]
}
