{
    "asset" : {
        "generator" : "Khronos glTF Blender I/O v1.8.19",
        "version" : "2.0"
    },
    "scene" : 0,
    "scenes" : [
        {
            "name" : "Scene",
            "nodes" : [
                0
            ]
        }
    ],
    "nodes" : [
        {
            "mesh" : 0,
            "name" : "Curve.006",
            "rotation" : [
                0.1734849512577057,
                0.0034422255121171474,
                0.28514161705970764,
                0.94264817237854
            ],
            "scale" : [
                11.909065246582031,
                11.909066200256348,
                11.909064292907715
            ],
            "translation" : [
                70.57952117919922,
                4.605860233306885,
                -32.0969123840332
            ]
        }
    ],
    "materials" : [
        {
            "doubleSided" : true,
            "name" : "SVGMat",
            "pbrMetallicRoughness" : {
                "baseColorFactor" : [
                    0,
                    0,
                    0,
                    1
                ],
                "metallicFactor" : 0,
                "roughnessFactor" : 0.4000000059604645
            }
        }
    ],
    "meshes" : [
        {
            "name" : "Curve.006",
            "primitives" : [
                {
                    "attributes" : {
                        "POSITION" : 0,
                        "NORMAL" : 1,
                        "TEXCOORD_0" : 2
                    },
                    "indices" : 3,
                    "material" : 0
                }
            ]
        }
    ],
    "accessors" : [
        {
            "bufferView" : 0,
            "componentType" : 5126,
            "count" : 634,
            "max" : [
                1.8146233558654785,
                3.0076160430908203,
                4.083215713500977
            ],
            "min" : [
                -3.7166800498962402,
                -1.4552297592163086,
                -1.6104469299316406
            ],
            "type" : "VEC3"
        },
        {
            "bufferView" : 1,
            "componentType" : 5126,
            "count" : 634,
            "type" : "VEC3"
        },
        {
            "bufferView" : 2,
            "componentType" : 5126,
            "count" : 634,
            "type" : "VEC2"
        },
        {
            "bufferView" : 3,
            "componentType" : 5123,
            "count" : 1044,
            "type" : "SCALAR"
        }
    ],
    "bufferViews" : [
        {
            "buffer" : 0,
            "byteLength" : 7608,
            "byteOffset" : 0
        },
        {
            "buffer" : 0,
            "byteLength" : 7608,
            "byteOffset" : 7608
        },
        {
            "buffer" : 0,
            "byteLength" : 5072,
            "byteOffset" : 15216
        },
        {
            "buffer" : 0,
            "byteLength" : 2088,
            "byteOffset" : 20288
        }
    ],
    "buffers" : [
        {
            "byteLength" : 22376,
            "uri" : "data:application/octet-stream;base64,"
        }
    ]
}
