{
    "asset" : {
        "generator" : "Khronos glTF Blender I/O v1.8.19",
        "version" : "2.0"
    },
    "scene" : 0,
    "scenes" : [
        {
            "name" : "Scene",
            "nodes" : [
                0
            ]
        }
    ],
    "nodes" : [
        {
            "mesh" : 0,
            "name" : "Plane",
            "scale" : [
                62.47023391723633,
                62.47023391723633,
                62.47023391723633
            ],
            "translation" : [
                5.426033020019531,
                11.149459838867188,
                10.226890563964844
            ]
        }
    ],
    "meshes" : [
        {
            "name" : "Plane.003",
            "primitives" : [
                {
                    "attributes" : {
                        "POSITION" : 0,
                        "NORMAL" : 1,
                        "TEXCOORD_0" : 2
                    },
                    "indices" : 3
                }
            ]
        }
    ],
    "accessors" : [
        {
            "bufferView" : 0,
            "componentType" : 5126,
            "count" : 9793,
            "max" : [
                1.036637783050537,
                1.390115737915039,
                1.273715853691101
            ],
            "min" : [
                -1.4069890975952148,
                -0.24682793021202087,
                -1.5845530033111572
            ],
            "type" : "VEC3"
        },
        {
            "bufferView" : 1,
            "componentType" : 5126,
            "count" : 9793,
            "type" : "VEC3"
        },
        {
            "bufferView" : 2,
            "componentType" : 5126,
            "count" : 9793,
            "type" : "VEC2"
        },
        {
            "bufferView" : 3,
            "componentType" : 5123,
            "count" : 16560,
            "type" : "SCALAR"
        }
    ],
    "bufferViews" : [
        {
            "buffer" : 0,
            "byteLength" : 117516,
            "byteOffset" : 0
        },
        {
            "buffer" : 0,
            "byteLength" : 117516,
            "byteOffset" : 117516
        },
        {
            "buffer" : 0,
            "byteLength" : 78344,
            "byteOffset" : 235032
        },
        {
            "buffer" : 0,
            "byteLength" : 33120,
            "byteOffset" : 313376
        }
    ],
    "buffers" : [
        {
            "byteLength" : 346496,
            "uri" : "data:application/octet-stream;base64,"
        }
    ]
}
