{
    "asset" : {
        "generator" : "Khronos glTF Blender I/O v1.8.19",
        "version" : "2.0"
    },
    "scene" : 0,
    "scenes" : [
        {
            "name" : "Scene",
            "nodes" : [
                0
            ]
        }
    ],
    "nodes" : [
        {
            "mesh" : 0,
            "name" : "Curve",
            "rotation" : [
                0,
                0.7071068286895752,
                0.7071068286895752,
                -1.1520234011186403e-07
            ],
            "scale" : [
                -508.44415283203125,
                -508.44415283203125,
                -508.44415283203125
            ],
            "translation" : [
                -12.912524223327637,
                -8.1535005569458,
                11.63414192199707
            ]
        }
    ],
    "meshes" : [
        {
            "name" : "Curve",
            "primitives" : [
                {
                    "attributes" : {
                        "POSITION" : 0,
                        "NORMAL" : 1,
                        "TEXCOORD_0" : 2
                    },
                    "indices" : 3
                }
            ]
        }
    ],
    "accessors" : [
        {
            "bufferView" : 0,
            "componentType" : 5126,
            "count" : 4633,
            "max" : [
                0.06848976761102676,
                0.045707277953624725,
                0.026792125776410103
            ],
            "min" : [
                -0.01769738458096981,
                -0.0007392785046249628,
                -0.06336681544780731
            ],
            "type" : "VEC3"
        },
        {
            "bufferView" : 1,
            "componentType" : 5126,
            "count" : 4633,
            "type" : "VEC3"
        },
        {
            "bufferView" : 2,
            "componentType" : 5126,
            "count" : 4633,
            "type" : "VEC2"
        },
        {
            "bufferView" : 3,
            "componentType" : 5123,
            "count" : 8559,
            "type" : "SCALAR"
        }
    ],
    "bufferViews" : [
        {
            "buffer" : 0,
            "byteLength" : 55596,
            "byteOffset" : 0
        },
        {
            "buffer" : 0,
            "byteLength" : 55596,
            "byteOffset" : 55596
        },
        {
            "buffer" : 0,
            "byteLength" : 37064,
            "byteOffset" : 111192
        },
        {
            "buffer" : 0,
            "byteLength" : 17118,
            "byteOffset" : 148256
        }
    ],
    "buffers" : [
        {
            "byteLength" : 165376,
            "uri" : "data:application/octet-stream;base64,"
        }
    ]
}
