{
    "asset" : {
        "generator" : "Khronos glTF Blender I/O v1.8.19",
        "version" : "2.0"
    },
    "scene" : 0,
    "scenes" : [
        {
            "name" : "Scene",
            "nodes" : [
                0
            ]
        }
    ],
    "nodes" : [
        {
            "mesh" : 0,
            "name" : "Curve.007",
            "rotation" : [
                0.2766440212726593,
                0.6507442593574524,
                -0.6507442593574524,
                0.2766439914703369
            ],
            "scale" : [
                0.6163531541824341,
                0.6163531541824341,
                0.6163529753684998
            ],
            "translation" : [
                -0.09876412898302078,
                0.23987571895122528,
                -0.21765220165252686
            ]
        }
    ],
    "materials" : [
        {
            "doubleSided" : true,
            "name" : "SVGMat",
            "pbrMetallicRoughness" : {
                "baseColorFactor" : [
                    0,
                    0,
                    0,
                    1
                ],
                "metallicFactor" : 0,
                "roughnessFactor" : 0.4000000059604645
            }
        }
    ],
    "meshes" : [
        {
            "name" : "Curve.007",
            "primitives" : [
                {
                    "attributes" : {
                        "POSITION" : 0,
                        "NORMAL" : 1,
                        "TEXCOORD_0" : 2
                    },
                    "indices" : 3,
                    "material" : 0
                }
            ]
        }
    ],
    "accessors" : [
        {
            "bufferView" : 0,
            "componentType" : 5126,
            "count" : 2026,
            "max" : [
                0.3557482659816742,
                0.009356250986456871,
                0.38918569684028625
            ],
            "min" : [
                -1.000720739364624,
                -0.4518311023712158,
                -0.2212216556072235
            ],
            "type" : "VEC3"
        },
        {
            "bufferView" : 1,
            "componentType" : 5126,
            "count" : 2026,
            "type" : "VEC3"
        },
        {
            "bufferView" : 2,
            "componentType" : 5126,
            "count" : 2026,
            "type" : "VEC2"
        },
        {
            "bufferView" : 3,
            "componentType" : 5123,
            "count" : 3600,
            "type" : "SCALAR"
        }
    ],
    "bufferViews" : [
        {
            "buffer" : 0,
            "byteLength" : 24312,
            "byteOffset" : 0
        },
        {
            "buffer" : 0,
            "byteLength" : 24312,
            "byteOffset" : 24312
        },
        {
            "buffer" : 0,
            "byteLength" : 16208,
            "byteOffset" : 48624
        },
        {
            "buffer" : 0,
            "byteLength" : 7200,
            "byteOffset" : 64832
        }
    ],
    "buffers" : [
        {
            "byteLength" : 72032,
            "uri" : "data:application/octet-stream;base64,"
        }
    ]
}
