{
    "asset" : {
        "generator" : "Khronos glTF Blender I/O v1.8.19",
        "version" : "2.0"
    },
    "scene" : 0,
    "scenes" : [
        {
            "name" : "Scene",
            "nodes" : [
                0
            ]
        }
    ],
    "nodes" : [
        {
            "mesh" : 0,
            "name" : "Curve",
            "rotation" : [
                -0.7071068286895752,
                0,
                0,
                -0.7071068286895752
            ],
            "scale" : [
                20.236494064331055,
                20.236494064331055,
                20.236494064331055
            ]
        }
    ],
    "meshes" : [
        {
            "name" : "Curve",
            "primitives" : [
                {
                    "attributes" : {
                        "POSITION" : 0,
                        "NORMAL" : 1,
                        "TEXCOORD_0" : 2
                    },
                    "indices" : 3
                }
            ]
        }
    ],
    "accessors" : [
        {
            "bufferView" : 0,
            "componentType" : 5126,
            "count" : 15342,
            "max" : [
                0.20322442054748535,
                0.0768360123038292,
                0.23702843487262726
            ],
            "min" : [
                -0.21208703517913818,
                -0.09274691343307495,
                -0.24508129060268402
            ],
            "type" : "VEC3"
        },
        {
            "bufferView" : 1,
            "componentType" : 5126,
            "count" : 15342,
            "type" : "VEC3"
        },
        {
            "bufferView" : 2,
            "componentType" : 5126,
            "count" : 15342,
            "type" : "VEC2"
        },
        {
            "bufferView" : 3,
            "componentType" : 5123,
            "count" : 30534,
            "type" : "SCALAR"
        }
    ],
    "bufferViews" : [
        {
            "buffer" : 0,
            "byteLength" : 184104,
            "byteOffset" : 0
        },
        {
            "buffer" : 0,
            "byteLength" : 184104,
            "byteOffset" : 184104
        },
        {
            "buffer" : 0,
            "byteLength" : 122736,
            "byteOffset" : 368208
        },
        {
            "buffer" : 0,
            "byteLength" : 61068,
            "byteOffset" : 490944
        }
    ],
    "buffers" : [
        {
            "byteLength" : 552012,
            "uri" : "data:application/octet-stream;base64,"
        }
    ]
}
