{
    "asset" : {
        "generator" : "Khronos glTF Blender I/O v1.8.19",
        "version" : "2.0"
    },
    "scene" : 0,
    "scenes" : [
        {
            "name" : "Scene",
            "nodes" : [
                0
            ]
        }
    ],
    "nodes" : [
        {
            "mesh" : 0,
            "name" : "Plane",
            "rotation" : [
                -0.7071068286895752,
                0,
                0,
                0.7071068286895752
            ],
            "scale" : [
                -19.210975646972656,
                -19.210975646972656,
                -19.210975646972656
            ],
            "translation" : [
                -1.145181655883789,
                -7.193328857421875,
                -6.525833606719971
            ]
        }
    ],
    "meshes" : [
        {
            "name" : "Plane",
            "primitives" : [
                {
                    "attributes" : {
                        "POSITION" : 0,
                        "NORMAL" : 1,
                        "TEXCOORD_0" : 2
                    },
                    "indices" : 3
                }
            ]
        }
    ],
    "accessors" : [
        {
            "bufferView" : 0,
            "componentType" : 5126,
            "count" : 2706,
            "max" : [
                1.4297908544540405,
                2.116962432861328,
                0.7050931453704834
            ],
            "min" : [
                -1.496645212173462,
                -1.5643539428710938,
                -1.416725516319275
            ],
            "type" : "VEC3"
        },
        {
            "bufferView" : 1,
            "componentType" : 5126,
            "count" : 2706,
            "type" : "VEC3"
        },
        {
            "bufferView" : 2,
            "componentType" : 5126,
            "count" : 2706,
            "type" : "VEC2"
        },
        {
            "bufferView" : 3,
            "componentType" : 5123,
            "count" : 9036,
            "type" : "SCALAR"
        }
    ],
    "bufferViews" : [
        {
            "buffer" : 0,
            "byteLength" : 32472,
            "byteOffset" : 0
        },
        {
            "buffer" : 0,
            "byteLength" : 32472,
            "byteOffset" : 32472
        },
        {
            "buffer" : 0,
            "byteLength" : 21648,
            "byteOffset" : 64944
        },
        {
            "buffer" : 0,
            "byteLength" : 18072,
            "byteOffset" : 86592
        }
    ],
    "buffers" : [
        {
            "byteLength" : 104664,
            "uri" : "data:application/octet-stream;base64,"
        }
    ]
}
